<?xml version="1.0" standalone="no"?>
<!DOCTYPE svg PUBLIC "-//W3C//DTD SVG 20010904//EN"
 "http://www.w3.org/TR/2001/REC-SVG-20010904/DTD/svg10.dtd">
<svg version="1.0" xmlns="http://www.w3.org/2000/svg"
 width="400.000000pt" height="400.000000pt" viewBox="0 0 500.000000 500.000000"
 preserveAspectRatio="xMidYMid meet">

<g transform="translate(0.000000,500.000000) scale(0.100000,-0.100000)"
fill="#000000" stroke="none">
<path d="M0 2500 l0 -2500 2500 0 2500 0 0 2500 0 2500 -2500 0 -2500 0 0
-2500z m548 1020 c41 -11 100 -34 131 -50 l58 -29 64 21 c37 12 105 22 160 25
123 7 224 -14 336 -69 l83 -40 71 12 c88 15 89 14 89 -93 0 -61 4 -85 19 -105
66 -95 111 -238 111 -357 l0 -81 -112 -18 c-173 -27 -369 -96 -486 -170 -24
-15 -47 -25 -50 -21 -9 9 15 93 45 155 18 38 50 77 102 125 182 169 249 244
285 318 37 74 55 170 38 196 -8 11 -23 10 -91 -8 -219 -55 -352 -191 -366
-376 -5 -59 -4 -67 7 -51 33 49 95 120 118 135 l25 16 -20 -30 c-82 -126 -127
-204 -137 -237 l-11 -39 -27 63 c-56 129 -138 244 -215 301 -31 23 -34 28 -15
22 63 -18 161 -93 203 -154 26 -39 29 -20 7 63 -28 112 -73 190 -160 277 -112
114 -246 172 -427 186 l-82 6 15 -64 c60 -263 184 -492 320 -591 88 -64 177
-98 256 -98 32 0 40 -5 54 -32 17 -31 34 -188 21 -188 -3 0 -30 14 -59 32 -29
17 -88 48 -130 68 l-78 36 -160 208 c-88 114 -158 211 -155 217 4 5 -12 53
-34 107 -41 100 -74 214 -87 297 l-7 48 109 -6 c64 -3 139 -14 182 -27z m4172
-537 l1 -128 30 73 31 72 59 0 c32 0 59 -3 59 -6 0 -3 -16 -41 -35 -85 l-34
-79 34 -81 c19 -44 35 -83 35 -85 0 -3 -28 -4 -61 -2 l-61 3 -29 70 -28 70 0
-72 -1 -73 -60 0 -60 0 0 225 0 225 60 0 60 0 0 -127z m-1050 67 l0 -40 -40 0
-40 0 0 -175 0 -175 -65 0 -65 0 0 175 0 175 -40 0 -40 0 0 40 0 40 145 0 145
0 0 -40z m-1613 -60 c32 -12 53 -45 53 -85 0 -23 -3 -25 -54 -25 -45 0 -54 3
-59 20 -7 29 -37 26 -37 -4 0 -27 16 -36 66 -36 51 0 72 -15 84 -59 13 -51 3
-97 -28 -121 -20 -16 -40 -20 -102 -20 -95 0 -130 20 -130 76 l0 34 55 0 c42
0 55 -3 55 -15 0 -8 9 -15 20 -15 15 0 20 7 20 25 0 23 -3 25 -49 25 -38 0
-56 6 -78 24 -24 20 -27 31 -27 79 0 57 13 83 49 97 29 12 127 12 162 0z m223
-5 c0 -12 4 -12 28 2 35 20 91 11 118 -18 17 -18 19 -38 19 -146 0 -119 -1
-126 -24 -144 -27 -22 -105 -26 -118 -6 -5 7 -10 -10 -13 -43 l-5 -55 -57 -3
-58 -3 0 216 0 215 55 0 c41 0 55 -4 55 -15z m340 -5 l0 -20 20 20 c11 11 29
20 40 20 17 0 20 -7 20 -50 0 -46 -2 -50 -24 -50 -47 0 -56 -22 -56 -136 l0
-104 -60 0 -60 0 0 163 c0 90 3 167 7 170 3 4 30 7 60 7 46 0 53 -2 53 -20z
m258 4 c20 -14 22 -14 22 1 0 13 10 15 58 13 l57 -3 3 -167 2 -168 -60 0 c-35
0 -60 4 -60 10 0 7 -6 7 -19 0 -33 -17 -95 -12 -119 10 -20 19 -22 30 -22 149
0 109 3 130 18 143 35 31 86 36 120 12z m319 -81 l19 -98 12 70 c24 138 16
125 83 125 53 0 60 -2 55 -17 -3 -10 -21 -83 -41 -162 -20 -79 -42 -159 -50
-177 -19 -45 -68 -74 -127 -74 l-48 0 0 45 0 45 40 0 c41 0 54 14 22 22 -14 4
-28 41 -60 149 -23 79 -42 150 -42 157 0 8 18 12 59 12 l58 0 20 -97z m631 81
c8 -14 10 -14 21 0 8 9 24 16 37 16 22 0 24 -4 24 -50 0 -48 -1 -50 -28 -50
-46 0 -52 -15 -52 -132 l0 -108 -60 0 -60 0 0 170 0 170 55 0 c39 0 56 -4 63
-16z m260 0 c20 -14 22 -14 22 0 0 13 12 16 55 16 l55 0 0 -170 0 -170 -60 0
c-40 0 -60 4 -60 12 0 9 -3 9 -12 0 -19 -19 -93 -15 -119 7 -22 18 -24 27 -27
133 -3 123 5 154 48 175 34 17 71 16 98 -3z m411 5 c38 -14 51 -35 51 -88 l0
-41 -55 0 c-52 0 -55 1 -55 25 0 18 -5 25 -20 25 -18 0 -20 -7 -20 -80 0 -73
2 -80 20 -80 13 0 20 7 20 20 0 18 7 20 55 20 l55 0 0 -44 c0 -68 -29 -86
-137 -86 -76 0 -86 2 -108 25 -24 23 -25 30 -25 139 0 63 3 122 6 131 15 39
140 59 213 34z m-2858 -377 l-21 -70 -77 -17 c-119 -27 -256 -83 -349 -144
l-30 -21 -54 55 c-34 35 -51 58 -45 64 46 44 259 138 387 170 80 20 199 40
207 35 2 -2 -6 -34 -18 -72z m-702 -145 c68 -46 179 -155 227 -223 24 -34 44
-64 44 -67 0 -6 -101 -29 -105 -25 -34 43 -283 367 -289 376 -10 17 62 -19
123 -61z m620 -29 c-21 -40 -174 -182 -227 -211 l-51 -28 -34 53 -35 53 22 17
c57 47 267 137 319 138 15 0 16 -3 6 -22z"/>
<path d="M2290 2830 c0 -73 2 -80 20 -80 18 0 20 7 20 80 0 73 -2 80 -20 80
-18 0 -20 -7 -20 -80z"/>
<path d="M2854 2897 c-3 -8 -4 -43 -2 -78 3 -56 5 -64 23 -64 18 0 20 7 20 75
0 63 -3 75 -18 78 -9 2 -20 -3 -23 -11z"/>
<path d="M4060 2830 c0 -73 2 -80 20 -80 18 0 20 7 20 80 0 73 -2 80 -20 80
-18 0 -20 -7 -20 -80z"/>
</g>
</svg>
