<?xml version="1.0" encoding="utf-8"?>
<!-- Generator: Adobe Illustrator 25.1.0, SVG Export Plug-In . SVG Version: 6.00 Build 0)  -->
<svg version="1.1" id="Layer_1" xmlns="http://www.w3.org/2000/svg" xmlns:xlink="http://www.w3.org/1999/xlink" x="0px" y="0px"
	 viewBox="0 0 100 55" style="enable-background:new 0 0 100 55;" xml:space="preserve">
<style type="text/css">
	.st0{fill:#3D3F40;}
</style>
<g>
	<path class="st0" d="M73.6,32.1c-5.7,0-10.3,4.6-10.3,10.3s4.6,10.3,10.3,10.3s10.3-4.6,10.3-10.3S79.2,32.1,73.6,32.1z M73.6,49.9
		c-4.1,0-7.5-3.3-7.5-7.5s3.3-7.5,7.5-7.5s7.5,3.3,7.5,7.5S77.7,49.9,73.6,49.9z"/>
	<path class="st0" d="M35.5,32.1c-5.7,0-10.3,4.6-10.3,10.3s4.6,10.3,10.3,10.3s10.3-4.6,10.3-10.3S41.2,32.1,35.5,32.1z M35.5,49.9
		c-4.1,0-7.5-3.3-7.5-7.5s3.3-7.5,7.5-7.5s7.5,3.3,7.5,7.5S39.6,49.9,35.5,49.9z"/>
	<path class="st0" d="M91.1,16.5c-0.1-0.1-0.3-0.2-0.5-0.2l-8.9,0.3c0.1-0.7,0.1-1.1,0.1-1.1h0.9c0,0,1,0.1,1-1
		c0-1.5-1.1-1.5-1.1-1.5H64.7c0,0-0.4,0.2-0.4,1.2s0.3,1.5,0.3,1.5l0,1.5l-1.9,0.1c-0.3-0.6-0.9-1-1.5-1h-0.8v-1.6
		c0-0.9-0.8-1.7-1.7-1.7H45.2c-0.9,0-1.7,0.8-1.7,1.7v1.6H40c-0.9,0-1.7,0.8-1.7,1.7v0.2l-5.6,0.2v-0.3c0-1-0.8-1.8-1.8-1.8h-12
		c-0.9,0-1.6,0.6-1.8,1.5L17,18.9l-7.7,0.3c-0.4,0-0.6,0.3-0.6,0.6v7.3c0,0.4,0.3,0.6,0.6,0.6h6L14.7,31c-0.2,1.1,0.6,2.1,1.8,2.1
		h12c1.3-1,2.7-1.7,4.3-2v-3.4h5.6v3.4c1.5,0.4,3,1.1,4.2,2h18.7c0.9,0,1.7-0.8,1.7-1.7v-3.7h1.8l0,5.4h1.7c2-1.5,4.4-2.4,7-2.4
		c2.2,0,4.3,0.6,6.1,1.7c0.1-0.2,0.1-0.4,0.1-0.8c0-0.8-0.3-1.1-0.6-1.2c0.2-0.9,0.4-1.8,0.6-2.7h10.8c0.4,0,0.6-0.3,0.6-0.6V16.9
		C91.3,16.8,91.2,16.6,91.1,16.5z M66,16c0-0.5,0.4-0.5,0.4-0.5h14.8c0,0.1-0.1,0.5-0.1,1.1L66,17.2C66,16.5,66,16.1,66,16z
		 M66,18.4l8.9-0.3l-8.9,8.3C66.1,25.1,66,21.1,66,18.4z M75.9,18.5l4.3,3.8c-0.2,1.3-0.5,2.8-0.8,4.2H67.3L75.9,18.5z M76.8,18.1
		l4.1-0.1c-0.1,0.9-0.3,2.1-0.5,3.3L76.8,18.1z M38.3,19.4v2.9l-4.2-2.8L38.3,19.4z M33.1,19.6l-0.4,0.3v-0.2L33.1,19.6z M16.7,20.2
		l-0.4,2.3l-3.4-2.2L16.7,20.2z M9.9,26.5L9.9,26.5l0-6.1l1.4-0.1l4.8,3.1l-0.6,3H9.9z M32.8,26.5v-5.5l0.9-0.6l4.7,3v3.1H32.8z
		 M62.9,26.5v-1.1l1.5,1.1H62.9z M62.9,24.2v-5.7l1.7-0.1l0.1,7.1L62.9,24.2z M78.6,30.4h-2c-3.7,0-7.2-1.6-9.1-2.7h11.7
		C79,28.6,78.8,29.5,78.6,30.4z M80.1,26.5c0.3-1.3,0.5-2.6,0.7-3.8l4.3,3.8H80.1z M90,26.5h-3.6l-5.5-4.8c0.2-1.5,0.4-2.7,0.6-3.8
		l8.5-0.3V26.5z"/>
</g>
</svg>
